<svg width="543" height="100" viewBox="0 0 543 100" fill="none" xmlns="http://www.w3.org/2000/svg">
<path d="M0 20C0 8.9543 8.96156 0 20.0162 0H80.0648C91.1194 0 100.081 8.95431 100.081 20V80C100.081 91.0457 91.1194 100 80.0648 100H20.0162C8.96155 100 0 91.0457 0 80V20Z" fill="black"/>
<path d="M62.8864 65.775C56.444 68.619 49.4648 67.4537 46.7804 66.5156C46.7804 67.1575 46.7512 69.1522 46.634 71.9961C46.5169 74.8401 45.6091 76.6373 45.1699 77.1804C45.2187 78.9579 45.2577 82.8387 45.0234 84.1422C44.7892 85.4456 43.9497 86.5615 43.5593 86.9565H39.606C39.9574 85.179 41.3142 84.0434 41.9487 83.6978C42.3001 80.0244 41.607 76.8348 41.2166 75.6992C40.8261 77.0817 39.8695 80.291 39.1667 82.0685C38.4639 83.8459 37.4097 85.4753 36.9704 86.0678H34.0421C33.8957 84.2903 34.8718 83.6978 35.5063 83.6978C35.7991 83.1547 36.5019 81.4464 36.9704 78.9579C37.439 76.4694 36.7752 71.7986 36.3848 69.7743V63.405C31.6994 60.887 29.9424 58.3689 28.771 55.5546C27.8339 53.3031 28.0877 49.8765 28.3318 48.4447C28.0389 47.9016 27.1852 46.5212 26.8676 44.5935C26.4283 41.9273 26.6724 40.0017 26.8676 38.9649C26.5747 38.6686 25.9891 37.1578 25.9891 33.4843C25.9891 29.8109 27.0628 27.9051 27.5996 27.4113V25.782C25.5498 25.6339 23.4999 24.7451 22.3286 23.5601C21.1572 22.3752 22.0358 20.5977 22.7678 20.0052C23.4999 19.4127 24.232 19.8571 25.257 19.5608C26.2819 19.2646 27.1604 18.9683 27.5996 18.0796C27.951 17.3686 27.258 14.4259 26.8676 13.0435C28.6246 13.2805 29.7471 14.8209 30.0888 15.5615V13.0435C32.285 14.0803 36.2383 16.5984 37.5561 22.0789C38.6103 26.4633 39.3619 35.6568 39.6059 39.7055C45.2186 39.7549 52.3443 38.9013 58.7867 40.298C64.6434 41.5677 67.279 44.1492 70.3538 44.1492C73.4285 44.1492 75.1856 42.3717 77.3818 43.8529C79.5781 45.3341 80.7495 49.4816 80.4566 52.5921C80.2224 55.0806 78.3092 55.9002 77.3818 55.999C76.2105 59.9094 77.3818 63.6519 78.1139 65.0344V70.6631C78.4556 71.1568 79.1389 72.6775 79.1389 74.8105C79.1389 76.9435 78.4556 78.3654 78.1139 78.8098C78.6996 82.1277 77.8699 85.5247 77.3818 86.8084H73.4285C73.8971 85.6234 74.6975 85.3272 75.0391 85.3272C75.742 81.6537 75.2344 78.2667 74.8927 77.0323C72.6672 75.7288 71.2323 73.428 70.793 72.4405C70.8418 73.2799 70.7052 75.6104 69.7681 78.2173C68.831 80.8243 67.4254 82.3647 66.8397 82.8091V85.9197H62.8864C62.8864 84.0237 63.9602 83.6485 64.497 83.6978C65.1803 82.4635 66.8397 80.5873 66.8397 76.8842C66.8397 73.7596 64.6435 72.2924 63.0329 69.4781C62.2676 68.141 62.6424 66.4663 62.8864 65.775Z" fill="url(#paint0_linear_3054_4082)"/>
<path d="M169.643 73.8052V24.6479H180.094V73.8052H169.643Z" fill="white"/>
<path fill-rule="evenodd" clip-rule="evenodd" d="M426.79 74.3352C423.394 74.3352 420.335 73.5844 417.613 72.0827C414.888 70.5369 412.721 68.3949 411.113 65.6564C409.551 62.9182 408.77 59.6939 408.77 55.9839C408.77 52.2299 409.551 48.9837 411.113 46.2454C412.721 43.5069 414.888 41.3869 417.613 39.8854C420.335 38.3837 423.394 37.6329 426.79 37.6329C429.826 37.6329 432.485 38.2954 434.763 39.6204C435.808 40.2289 436.745 40.9817 437.574 41.8789V24.6479H448.025V73.8052H438.044V69.6895C437.144 70.7648 436.095 71.6509 434.897 72.3477C432.662 73.6727 429.96 74.3352 426.79 74.3352ZM428.6 65.8552C430.296 65.8552 431.835 65.4577 433.221 64.6627C434.606 63.8677 435.698 62.7414 436.502 61.2839C437.352 59.7824 437.776 58.0157 437.776 55.9839C437.776 53.9082 437.352 52.1414 436.502 50.6842C435.698 49.2267 434.606 48.1004 433.221 47.3054C431.835 46.5104 430.296 46.1129 428.6 46.1129C426.858 46.1129 425.293 46.5104 423.91 47.3054C422.525 48.1004 421.407 49.2267 420.56 50.6842C419.757 52.1414 419.355 53.9082 419.355 55.9839C419.355 58.0157 419.757 59.7824 420.56 61.2839C421.407 62.7414 422.525 63.8677 423.91 64.6627C425.293 65.4577 426.858 65.8552 428.6 65.8552Z" fill="white"/>
<path fill-rule="evenodd" clip-rule="evenodd" d="M464.733 71.9501C467.86 73.5398 471.478 74.3348 475.586 74.3348C478.847 74.3348 481.726 73.8491 484.229 72.8773C486.729 71.8616 488.805 70.4263 490.458 68.5713L484.899 62.6088C483.693 63.7571 482.353 64.6183 480.879 65.1926C479.448 65.7666 477.775 66.0538 475.854 66.0538C473.71 66.0538 471.834 65.6783 470.226 64.9276C468.664 64.1326 467.435 63.0063 466.543 61.5488C466.08 60.731 465.744 59.8476 465.533 58.8988H492.804L492.823 58.7017C492.86 58.3196 492.899 57.9216 492.938 57.5076C492.981 56.9776 493.004 56.5138 493.004 56.1163C493.004 52.2738 492.177 48.9833 490.526 46.2451C488.873 43.4626 486.618 41.3426 483.759 39.8851C480.945 38.3833 477.775 37.6326 474.246 37.6326C470.583 37.6326 467.301 38.4276 464.399 40.0176C461.494 41.5633 459.194 43.7276 457.497 46.5101C455.844 49.2483 455.02 52.4063 455.02 55.9838C455.02 59.5171 455.867 62.6751 457.566 65.4576C459.262 68.1958 461.651 70.3601 464.733 71.9501ZM465.412 52.8701C465.586 51.7659 465.918 50.7722 466.409 49.8888C467.167 48.4753 468.216 47.3933 469.556 46.6426C470.942 45.8476 472.527 45.4501 474.314 45.4501C476.099 45.4501 477.664 45.8476 479.004 46.6426C480.343 47.3933 481.392 48.4533 482.151 49.8226C482.654 50.7313 482.992 51.7472 483.162 52.8701H465.412Z" fill="white"/>
<path d="M508.291 55.828L494.425 73.8058H505.814L514 62.8882L521.892 73.8058H533.751L519.808 55.5938L533.215 38.1636H522.094L514.264 48.573L506.618 38.1636H494.895L508.291 55.828Z" fill="white"/>
<path d="M394.277 39.3551C392.044 38.2066 389.499 37.6326 386.639 37.6326C383.558 37.6326 380.812 38.2728 378.4 39.5538C376.978 40.3095 375.749 41.2574 374.715 42.3975V38.1626H364.734V73.8048H375.185V56.1826C375.185 53.9741 375.541 52.1633 376.257 50.7501C377.015 49.3366 378.041 48.2988 379.338 47.6363C380.678 46.9296 382.175 46.5763 383.826 46.5763C386.149 46.5763 387.936 47.2608 389.185 48.6301C390.482 49.9991 391.129 52.1191 391.129 54.9901V73.8048H401.58V53.4001C401.58 49.7783 400.933 46.8191 399.636 44.5226C398.342 42.1816 396.554 40.4591 394.277 39.3551Z" fill="white"/>
<path d="M343.488 73.8049V27.4299H354.341V73.8049H343.488Z" fill="white"/>
<path fill-rule="evenodd" clip-rule="evenodd" d="M323.512 69.3766V73.8048H333.293V53.4663C333.293 48.0338 331.773 44.0366 328.737 41.4751C325.701 38.9133 321.436 37.6326 315.943 37.6326C313.083 37.6326 310.27 38.0078 307.501 38.7588C304.731 39.5096 302.364 40.5696 300.4 41.9388L304.152 49.1601C305.446 48.1441 307.008 47.3491 308.841 46.7751C310.717 46.1566 312.613 45.8476 314.534 45.8476C317.348 45.8476 319.426 46.4658 320.766 47.7026C322.149 48.9391 322.842 50.6616 322.842 52.8701H314.534C310.871 52.8701 307.903 53.3338 305.626 54.2613C303.348 55.1446 301.672 56.3813 300.6 57.9713C299.574 59.5613 299.06 61.4163 299.06 63.5363C299.06 65.5678 299.596 67.4008 300.668 69.0351C301.74 70.6691 303.28 71.9721 305.289 72.9436C307.299 73.8711 309.711 74.3348 312.525 74.3348C315.695 74.3348 318.286 73.7388 320.296 72.5463C321.653 71.7413 322.725 70.6847 323.512 69.3766ZM322.842 58.8988H315.675C313.217 58.8988 311.521 59.2963 310.583 60.0913C309.688 60.8863 309.243 61.8801 309.243 63.0726C309.243 64.3976 309.756 65.4576 310.783 66.2526C311.855 67.0033 313.306 67.3788 315.139 67.3788C316.881 67.3788 318.443 66.9813 319.828 66.1863C321.211 65.3471 322.217 64.1326 322.842 62.5426V58.8988Z" fill="white"/>
<path d="M277.299 37.6326C280.155 37.6326 282.678 38.2066 284.868 39.3551C287.1 40.4591 288.842 42.1816 290.093 44.5226C291.387 46.8191 292.037 49.7783 292.037 53.4001V73.8048H281.586V54.9901C281.586 52.1191 280.982 49.9991 279.776 48.6301C278.57 47.2608 276.874 46.5763 274.685 46.5763C273.165 46.5763 271.805 46.9296 270.599 47.6363C269.393 48.2988 268.456 49.3146 267.786 50.6838C267.116 52.0528 266.779 53.7976 266.779 55.9176V73.8048H256.329V54.9901C256.329 52.1191 255.727 49.9991 254.521 48.6301C253.358 47.2608 251.684 46.5763 249.495 46.5763C247.976 46.5763 246.616 46.9296 245.409 47.6363C244.203 48.2988 243.265 49.3146 242.595 50.6838C241.925 52.0528 241.591 53.7976 241.591 55.9176V73.8048H231.14V38.1626H241.122V42.2748C242.091 41.1711 243.23 40.264 244.538 39.5538C246.861 38.2728 249.495 37.6326 252.443 37.6326C255.747 37.6326 258.629 38.4716 261.086 40.1501C262.393 41.004 263.468 42.0992 264.312 43.4357C265.349 42.132 266.619 41.0147 268.119 40.0838C270.799 38.4496 273.858 37.6326 277.299 37.6326Z" fill="white"/>
<path fill-rule="evenodd" clip-rule="evenodd" d="M211.9 69.376V73.8048H221.681V53.4663C221.681 48.0338 220.163 44.0366 217.126 41.4751C214.089 38.9133 209.824 37.6326 204.33 37.6326C201.472 37.6326 198.658 38.0078 195.889 38.7588C193.12 39.5096 190.753 40.5696 188.788 41.9388L192.539 49.1601C193.835 48.1441 195.398 47.3491 197.229 46.7751C199.105 46.1566 201.003 45.8476 202.923 45.8476C205.737 45.8476 207.814 46.4658 209.154 47.7026C210.538 48.9391 211.23 50.6616 211.23 52.8701H202.923C199.261 52.8701 196.291 53.3338 194.013 54.2613C191.736 55.1446 190.061 56.3813 188.989 57.9713C187.962 59.5613 187.448 61.4163 187.448 63.5363C187.448 65.5678 187.984 67.4008 189.056 69.0351C190.128 70.6691 191.669 71.9721 193.678 72.9436C195.688 73.8711 198.1 74.3348 200.914 74.3348C204.085 74.3348 206.675 73.7388 208.685 72.5463C210.042 71.7412 211.114 70.6844 211.9 69.376ZM211.23 58.8988H204.062C201.606 58.8988 199.909 59.2963 198.971 60.0913C198.078 60.8863 197.631 61.8801 197.631 63.0726C197.631 64.3976 198.145 65.4576 199.172 66.2526C200.244 67.0033 201.695 67.3788 203.526 67.3788C205.268 67.3788 206.831 66.9813 208.216 66.1863C209.6 65.3471 210.605 64.1326 211.23 62.5426V58.8988Z" fill="white"/>
<path d="M129.883 27.4299V73.8049H164.25V65.0599H140.735V27.4299H129.883Z" fill="white"/>
<defs>
<linearGradient id="paint0_linear_3054_4082" x1="26.4432" y1="19.2646" x2="89.8582" y2="72.4099" gradientUnits="userSpaceOnUse">
<stop offset="0.0619804" stop-color="#F6DCD9"/>
<stop offset="0.325677" stop-color="#FFA5EA"/>
<stop offset="0.589257" stop-color="#45DFF8"/>
<stop offset="1" stop-color="#BC8DEB"/>
</linearGradient>
</defs>
</svg>
